<mxfile host="app.diagrams.net" modified="2024-05-13T00:14:46.142Z" agent="Mozilla/5.0 (Windows NT 10.0; Win64; x64) AppleWebKit/537.36 (KHTML, like Gecko) Chrome/124.0.0.0 Safari/537.36 Edg/124.0.0.0" version="24.4.0" etag="-Yqw-ai-oFlX1ufAxvnC" type="github">
  <diagram name="PÃ¡gina-1" id="FrDHrzgrUsc8CBx0hyYD">
    <mxGraphModel>
      <root>
        <mxCell id="0" />
        <mxCell id="1" parent="0" />
      </root>
    </mxGraphModel>
  </diagram>
</mxfile>
